<svg version="1.0" xmlns="http://www.w3.org/2000/svg"
 width="1179.000000pt" height="901.000000pt" viewBox="0 0 1179.000000 901.000000"
 preserveAspectRatio="xMidYMid meet">

<g transform="translate(0.000000,901.000000) scale(0.100000,-0.100000)"
fill="#000000" stroke="none">
<path d="M5996 5885 c-167 -113 -364 -300 -487 -460 -67 -87 -139 -199 -182
-285 -33 -65 -37 -80 -28 -103 23 -59 107 -55 132 6 23 55 135 233 195 309 97
124 329 345 420 401 12 7 282 -131 439 -226 578 -346 991 -737 1129 -1064 62
-150 71 -196 70 -378 -1 -155 -4 -180 -31 -286 -62 -234 -129 -354 -288 -515
-202 -204 -436 -319 -791 -389 -480 -96 -1009 -58 -1403 100 -494 198 -762
584 -765 1100 -1 132 1 146 32 245 74 232 236 458 500 697 117 106 260 221
337 272 74 50 117 98 110 124 -10 35 -54 69 -78 61 -53 -17 -294 -204 -467
-363 -199 -183 -335 -346 -435 -520 -55 -98 -76 -149 -111 -277 -24 -87 -27
-116 -26 -234 1 -205 45 -412 123 -578 120 -258 328 -462 613 -601 207 -102
407 -158 701 -196 141 -18 519 -21 652 -5 399 49 708 155 953 329 84 60 223
198 282 281 176 250 272 638 228 920 -13 77 -63 235 -98 305 -165 335 -534
694 -1037 1010 -203 128 -604 345 -637 345 -8 0 -32 -11 -52 -25z"/>
<path d="M6025 5646 c-36 -36 -127 -227 -168 -351 -42 -126 -62 -218 -72 -325
-6 -68 -4 -78 15 -103 24 -30 55 -34 87 -12 16 11 23 29 27 73 21 198 69 360
162 542 35 69 64 133 64 143 0 25 -36 57 -65 57 -14 0 -37 -11 -50 -24z"/>
<path d="M6234 5504 c-16 -24 -16 -30 0 -106 36 -165 117 -289 268 -409 71
-58 108 -62 141 -18 28 38 16 60 -64 126 -124 102 -194 213 -220 347 -12 62
-32 86 -75 86 -25 0 -38 -7 -50 -26z"/>
</g>
</svg>
